# Blender3D v245 OBJ File: 
# www.blender3d.org
o Cube
v 0.999934 0.999674 0.998920
v 0.999934 0.999673 -1.001081
v -1.000066 0.999673 -1.001080
v -1.000065 0.999674 0.998920
v 0.999935 -1.000327 0.998919
v 0.999934 -1.000327 -1.001081
v -1.000066 -1.000327 -1.001080
v -1.000066 -1.000327 0.998920
vn 0.000000 -0.000000 1.000000
vn -1.000000 0.000000 0.000000
vn -0.000000 0.000000 -1.000000
vn 1.000000 0.000000 -0.000000
vn 1.000000 -0.000000 -0.000001
vn 0.000000 -1.000000 0.000000
vn -0.000000 1.000000 -0.000000
usemtl (null)
s off
f 5//1 1//1 4//1
f 5//1 4//1 8//1
f 3//2 7//2 8//2
f 3//2 8//2 4//2
f 2//3 6//3 3//3
f 6//3 7//3 3//3
f 1//4 5//4 2//4
f 5//5 6//5 2//5
f 5//6 8//6 7//6
f 5//6 7//6 6//6
f 1//7 2//7 3//7
f 1//7 3//7 4//7
