# Blender3D v245 OBJ File: 
# www.blender3d.org
o Suzanne
v 0.820648 -0.402687 -0.356894
v 0.857461 0.043653 -0.249320
v -0.551150 0.683555 -0.293026
v -0.553641 0.583313 -0.046589
v 0.553641 0.583313 -0.046589
v -1.363963 -0.443806 -0.311160
v 0.348457 0.624964 0.037586
v 0.676480 0.672550 -0.344208
v 0.282848 0.755660 -0.403191
v -0.348457 0.624964 0.037586
v 1.040828 -0.307997 0.072466
v -0.102854 0.798626 0.116802
v 0.778476 -0.340176 -0.612437
v 0.730896 0.300179 -0.395130
v 0.414091 0.750463 -0.390665
v -0.148254 0.655945 -0.043499
v 0.148254 0.655945 -0.043499
v 1.149317 -0.432862 -0.040593
v 0.078125 0.656250 -0.242188
v -0.078125 0.656250 -0.242188
v 0.238707 0.812151 -0.326680
v 0.797279 0.428657 -0.150063
v -0.950095 -0.344615 -0.295642
v -0.238707 0.812151 -0.326680
v 1.247028 -0.427649 -0.271170
v 1.205441 -0.398830 -0.486177
v -1.149317 -0.432862 -0.040593
v -0.085275 0.662453 0.834323
v 0.156250 0.648438 -0.437500
v -0.156250 0.648438 -0.437500
v 0.350082 0.625381 -0.529388
v 0.196744 0.759277 -0.302586
v 0.458474 0.470104 -0.528782
v -0.350082 0.625381 -0.529388
v -0.869021 -0.209863 -0.385142
v 0.000000 0.729180 -0.064080
v -0.027923 0.764660 0.325719
v -0.379366 0.840892 -0.233613
v 0.816093 -0.124331 0.102784
v -0.672667 -0.132064 0.115746
v 0.546875 0.578125 -0.437500
v -0.546875 0.578125 -0.437500
v 1.250000 -0.546875 -0.468750
v -0.636273 0.567998 -0.242291
v 0.636273 0.567998 -0.242291
v -1.250000 -0.546875 -0.468750
v -0.857461 0.043653 -0.249320
v -0.820648 -0.402687 -0.356894
v 0.950095 -0.344615 -0.295642
v -1.176493 -0.435112 -0.302891
v -0.322382 0.408724 0.877814
v 0.869021 -0.209863 -0.385142
v 1.176493 -0.435112 -0.302891
v -0.730896 0.300179 -0.395130
v -0.256347 0.848871 -0.644717
v -1.324122 -0.494068 -0.075170
v -0.868541 -0.305118 -0.013814
v 0.006113 0.506863 1.007317
v 0.868541 -0.305118 -0.013814
v -0.245693 0.608076 -0.695667
v 0.372660 0.717962 -0.078364
v -0.747130 -0.259707 -0.056640
v 0.000000 0.343750 0.804688
v 0.325558 0.402332 0.884537
v 0.379366 0.840892 -0.233613
v -0.522555 0.446282 0.052445
v 0.372394 -0.253735 0.253380
v -0.197628 0.760496 -0.299675
v 0.248913 0.849653 -0.646247
v 0.778883 0.106553 -0.567231
v -0.453125 -0.382813 -0.867188
v -0.081164 0.735394 0.750795
v -0.006850 0.635798 -0.427438
v -0.000000 0.292299 0.504513
v 0.000000 -0.546875 -0.898438
v 0.000000 -0.851562 -0.562500
v 0.000000 -0.755797 0.117759
v 0.000000 -0.351562 0.382813
v 0.223679 0.559675 0.178931
v -0.199903 0.336843 0.407915
v 0.461072 0.160322 -0.901760
v -0.223728 0.559069 0.179111
v 0.359191 0.568960 0.920343
v -1.205441 -0.398830 -0.486177
v -0.778883 0.106553 -0.567231
v 0.235982 0.766612 -0.137945
v -0.414091 0.750463 -0.390665
v -0.000000 0.135858 -0.980337
v -0.458474 0.470104 -0.528782
v -0.358712 0.566674 0.923224
v -0.823131 -0.358657 0.137969
v 0.250243 0.606163 -0.695316
v -0.480768 -0.697489 -0.427243
v 0.609192 0.557297 0.061394
v -0.545056 0.677945 -0.192007
v 0.083188 0.709342 0.847392
v -0.798003 0.429493 -0.150959
v 0.490308 -0.561496 -0.019438
v -0.855950 0.587802 -0.422370
v 0.855950 0.587802 -0.422370
v -0.816093 -0.124331 0.102784
v 0.522555 0.446282 0.052445
v -0.234423 0.755734 -0.767446
v 0.131309 0.762517 0.233646
v 0.823131 -0.358657 0.137969
v 0.240780 0.759624 -0.765445
v -0.133527 0.765211 0.227705
v 0.453125 -0.382813 -0.867188
v -0.003660 0.755523 -0.422157
v 0.747130 -0.259707 -0.056640
v 0.001984 0.818690 -0.337614
v -0.372394 -0.253735 0.253380
v 0.551150 0.683555 -0.293026
v 0.545056 0.677945 -0.192007
v -0.235982 0.766612 -0.137945
v 0.199903 0.336843 0.407915
v 0.079077 0.640386 0.803626
v -1.247028 -0.427649 -0.271170
v -0.372713 0.717961 -0.078324
v 0.000000 0.788769 0.144310
v 1.324122 -0.494068 -0.075170
v 0.102854 0.798626 0.116802
v 0.672667 -0.132064 0.115746
v -0.778476 -0.340176 -0.612437
v -0.676480 0.672550 -0.344208
v -0.490308 -0.561496 -0.019438
v -0.461072 0.160322 -0.901760
v -0.620820 0.542073 0.057864
v -0.282848 0.755660 -0.403191
v 1.363963 -0.443806 -0.311160
v -1.040828 -0.307997 0.072466
v 0.480768 -0.697489 -0.427243
vn 0.000000 -0.299661 0.954039
vn 0.486373 -0.241462 0.839686
vn 0.775201 -0.355419 0.522202
vn 0.350414 0.934172 0.067110
vn 0.565203 0.699698 0.436964
vn 0.727683 0.685629 -0.018403
vn -0.486373 -0.241462 0.839686
vn -0.381115 -0.760460 0.525712
vn 0.000000 -0.758965 0.651112
vn -0.565203 0.699698 0.436964
vn -0.350414 0.934172 0.067110
vn -0.727683 0.685629 -0.018403
vn -0.532670 0.037873 0.845454
vn -0.548326 0.478439 0.685842
vn -0.898068 0.148412 0.414014
vn 0.000000 -0.584246 -0.811548
vn 0.378704 -0.373363 -0.846858
vn 0.493423 -0.828455 -0.264901
vn -0.774957 -0.355022 0.522813
vn 0.000000 -0.731040 0.682333
vn -0.493423 -0.828455 -0.264901
vn -0.378704 -0.373363 -0.846858
vn 0.895016 0.160131 0.416242
vn 0.534196 0.057039 0.843410
vn 0.523972 0.133518 0.841182
vn -0.800806 0.451033 0.393963
vn -0.809351 0.392621 0.436781
vn -0.470840 -0.745476 0.471725
vn -0.000031 0.206244 -0.978484
vn 0.130985 -0.431043 0.892758
vn 0.430280 0.901975 -0.035249
vn 0.136052 0.767418 0.626514
vn 0.480331 0.427778 -0.765679
vn 0.251503 -0.166204 -0.953459
vn 0.803919 0.091159 -0.587664
vn -0.136052 0.767418 0.626514
vn -0.230140 0.959655 -0.161412
vn -0.016022 0.996185 0.085574
vn -0.681967 0.727622 -0.073885
vn -0.394818 0.825098 0.404065
vn -0.524064 0.133427 0.841151
vn 0.394818 0.825098 0.404065
vn 0.292428 0.893429 -0.340892
vn 0.681967 0.727622 -0.073885
vn 0.169439 -0.600726 -0.781274
vn -0.832728 -0.209449 -0.512497
vn -0.480850 0.427412 -0.765526
vn -0.000458 0.998566 0.053316
vn 0.393689 0.916074 0.075991
vn 0.288369 0.954161 0.079775
vn -0.803858 0.088107 -0.588214
vn -0.239448 -0.179571 -0.954131
vn -0.431745 0.864223 -0.258187
vn -0.709708 0.702475 -0.052675
vn 0.016022 0.996185 0.085574
vn 0.230140 0.959655 -0.161412
vn 0.709708 0.702475 -0.052675
vn 0.431745 0.864223 -0.258187
vn -0.350200 0.779534 0.519272
vn -0.128056 0.892575 0.432295
vn -0.049043 0.876919 0.478072
vn 0.800989 0.405042 0.440809
vn 0.894345 0.315958 0.316630
vn 0.007050 0.275887 -0.961150
vn 0.478744 -0.498947 -0.722343
vn 0.174169 0.062685 -0.982696
vn 0.031159 0.188116 -0.981628
vn -0.238990 0.949828 0.201666
vn -0.407086 0.840815 -0.356731
vn -0.455153 0.847468 0.273110
vn -0.159337 0.088321 -0.983245
vn -0.458724 -0.478347 -0.748802
vn 0.992828 0.119266 -0.006104
vn -0.565691 0.823481 -0.042634
vn -0.430280 0.901975 -0.035249
vn -0.532456 0.641774 -0.551866
vn 0.382611 -0.907254 -0.174505
vn 0.832728 -0.209449 -0.512497
vn 0.874722 0.425092 -0.232643
vn 0.532456 0.641774 -0.551866
vn -0.992889 0.118839 -0.006653
vn 0.137089 0.740898 -0.657430
vn 0.000031 0.994964 0.100162
vn -0.456710 0.887997 0.053224
vn -0.137089 0.740898 -0.657430
vn 0.381115 -0.760460 0.525712
vn 0.309336 0.922391 0.231239
vn 0.422987 0.895871 0.135777
vn 0.165410 0.966247 0.197333
vn 0.565691 0.823481 -0.042634
vn 0.407086 0.840815 -0.356731
vn -0.057253 0.892544 0.447279
vn 0.573016 0.698202 -0.429060
vn 0.575671 -0.708457 0.408246
vn -0.573016 0.698202 -0.429060
vn 0.000000 -0.997284 -0.073336
vn -0.863857 0.280862 -0.418134
vn -0.288797 0.954711 0.071474
vn -0.292428 0.893429 -0.340892
vn -0.169439 -0.600726 -0.781274
vn -0.165410 0.966247 0.197333
vn -0.426160 0.893551 0.140996
vn -0.322886 0.913388 0.247780
vn 0.455153 0.847468 0.273110
vn 0.761925 0.645528 -0.052187
vn -0.575671 -0.708457 0.408246
vn 0.537675 0.506485 0.674032
vn -0.761925 0.645528 -0.052187
vn -0.874722 0.425092 -0.232643
vn 0.361461 0.911771 -0.194830
vn 0.317576 0.668661 -0.672292
vn -0.317576 0.668661 -0.672292
vn -0.379040 0.905240 -0.191961
vn -0.130985 -0.431043 0.892758
vn -0.008454 -0.949950 0.312174
vn 0.863857 0.280862 -0.418134
vn 0.238990 0.949828 0.201666
vn 0.827448 0.476852 -0.296457
vn 0.001587 0.998505 -0.054201
vn -0.037812 -0.028077 0.998871
vn -0.382611 -0.907254 -0.174505
vn -0.829127 0.467818 -0.306040
vn 0.469832 -0.738334 0.483810
vn 0.400616 0.813837 0.420850
vn -0.411634 0.803766 0.429518
vn 0.202185 0.979034 -0.024354
vn -0.214026 0.976470 -0.026063
vn 0.007080 0.995392 -0.095309
vn 0.174230 0.959044 0.223243
vn -0.175024 0.958678 0.224219
vn -0.022645 0.997436 -0.067660
vn 0.022065 0.997589 -0.065615
usemtl (null)
s 1
f 78//1 67//2 116//3
f 65//4 5//5 45//6
f 112//7 126//8 77//9
f 4//10 38//11 44//12
f 66//13 128//14 97//15
f 75//16 108//17 132//18
f 80//19 78//1 74//20
f 93//21 71//22 75//16
f 22//23 102//24 123//25
f 80//19 90//26 82//27
f 51//28 90//26 80//19
f 71//22 88//29 75//16
f 123//25 105//30 39//31
f 65//4 7//32 5//5
f 81//33 33//34 14//35
f 10//36 38//11 4//10
f 27//37 118//38 6//39
f 65//4 17//40 7//32
f 112//7 66//13 40//41
f 16//42 38//11 10//36
f 26//43 130//44 43//45
f 124//46 127//47 71//22
f 120//48 104//49 122//50
f 54//51 89//52 127//47
f 17//40 21//53 19//54
f 130//44 25//55 18//56
f 20//57 24//58 16//42
f 117//59 72//60 28//61
f 79//62 83//63 116//3
f 65//4 21//53 17//40
f 73//64 33//34 81//33
f 24//58 38//11 16//42
f 60//65 103//66 109//67
f 50//68 57//69 23//70
f 109//67 106//71 92//72
f 22//23 123//25 2//73
f 57//69 131//74 101//75
f 21//53 29//76 19//54
f 1//77 13//78 52//79
f 30//80 24//58 20//57
f 40//41 97//15 47//81
f 21//53 31//82 29//76
f 72//60 37//83 107//84
f 34//85 24//58 30//80
f 77//9 98//86 67//2
f 60//65 109//67 73//64
f 114//87 8//88 113//89
f 109//67 92//72 73//64
f 11//90 18//56 59//91
f 21//53 65//4 31//82
f 96//92 72//60 117//59
f 38//11 24//58 34//85
f 31//82 65//4 41//93
f 1//77 43//45 121//94
f 42//95 38//11 34//85
f 76//96 132//18 98//86
f 75//16 132//18 76//96
f 65//4 45//6 41//93
f 93//21 75//16 76//96
f 44//12 38//11 42//95
f 50//68 118//38 27//37
f 126//8 93//21 76//96
f 85//97 47//81 54//51
f 90//26 28//61 72//60
f 106//71 33//34 92//72
f 107//84 12//98 82//27
f 6//39 84//99 46//100
f 3//101 125//102 95//103
f 80//19 66//13 112//7
f 59//91 49//104 110//105
f 43//45 1//77 52//79
f 131//74 27//37 56//106
f 79//62 102//24 94//107
f 57//69 101//75 62//108
f 73//64 92//72 33//34
f 39//31 59//91 110//105
f 46//100 84//99 35//109
f 8//88 9//110 15//111
f 132//18 108//17 13//78
f 87//112 129//113 125//102
f 121//94 11//90 105//30
f 12//98 107//84 120//48
f 91//114 131//74 56//106
f 102//24 67//2 123//25
f 80//19 74//20 63//115
f 57//69 50//68 27//37
f 2//73 70//116 14//35
f 49//104 59//91 53//117
f 121//94 18//56 11//90
f 101//75 40//41 62//108
f 27//37 6//39 56//106
f 123//25 39//31 110//105
f 2//73 110//105 52//79
f 50//68 23//70 35//109
f 104//49 37//83 72//60
f 57//69 27//37 131//74
f 78//1 116//3 74//20
f 112//7 77//9 78//1
f 62//108 47//81 35//109
f 106//71 100//118 14//35
f 25//55 53//117 18//56
f 66//13 82//27 128//14
f 89//52 103//66 60//65
f 106//71 14//35 33//34
f 123//25 98//86 105//30
f 126//8 76//96 77//9
f 77//9 67//2 78//1
f 12//98 120//48 36//119
f 51//28 63//115 58//120
f 100//118 22//23 14//35
f 62//108 35//109 23//70
f 52//79 53//117 26//43
f 88//29 108//17 75//16
f 50//68 35//109 84//99
f 71//22 127//47 88//29
f 124//46 48//121 35//109
f 54//51 127//47 85//97
f 52//79 49//104 53//117
f 80//19 63//115 51//28
f 2//73 13//78 70//116
f 107//84 37//83 120//48
f 54//51 99//122 103//66
f 8//88 15//111 113//89
f 1//77 105//30 98//86
f 46//100 35//109 48//121
f 26//43 53//117 25//55
f 56//106 48//121 91//114
f 118//38 84//99 6//39
f 79//62 104//49 83//63
f 73//64 81//33 88//29
f 90//26 107//84 82//27
f 83//63 58//120 64//123
f 79//62 94//107 61//124
f 79//62 61//124 122//50
f 119//125 128//14 82//27
f 119//125 82//27 12//98
f 80//19 112//7 78//1
f 88//29 81//33 108//17
f 54//51 103//66 89//52
f 83//63 64//123 116//3
f 40//41 66//13 97//15
f 126//8 48//121 93//21
f 56//106 6//39 46//100
f 127//47 89//52 73//64
f 22//23 100//118 8//88
f 22//23 8//88 94//107
f 125//102 99//122 97//15
f 125//102 97//15 128//14
f 72//60 107//84 90//26
f 126//8 112//7 40//41
f 1//77 121//94 105//30
f 123//25 67//2 98//86
f 100//118 106//71 69//126
f 100//118 69//126 8//88
f 55//127 103//66 99//122
f 55//127 99//122 125//102
f 63//115 74//20 116//3
f 1//77 132//18 13//78
f 124//46 35//109 47//81
f 60//65 73//64 89//52
f 91//114 40//41 101//75
f 104//49 96//92 83//63
f 104//49 72//60 96//92
f 124//46 47//81 85//97
f 106//71 109//67 111//128
f 106//71 111//128 69//126
f 111//128 109//67 103//66
f 111//128 103//66 55//127
f 14//35 22//23 2//73
f 22//23 94//107 102//24
f 91//114 101//75 131//74
f 130//44 18//56 121//94
f 32//129 9//110 69//126
f 32//129 69//126 111//128
f 55//127 129//113 68//130
f 55//127 68//130 111//128
f 91//114 48//121 126//8
f 127//47 73//64 88//29
f 23//70 57//69 62//108
f 87//112 125//102 3//101
f 120//48 122//50 36//119
f 2//73 52//79 13//78
f 79//62 122//50 104//49
f 120//48 37//83 104//49
f 26//43 25//55 130//44
f 8//88 69//126 9//110
f 58//120 90//26 51//28
f 55//127 125//102 129//113
f 11//90 39//31 105//30
f 76//96 98//86 77//9
f 91//114 126//8 40//41
f 49//104 52//79 110//105
f 114//87 94//107 8//88
f 80//19 82//27 66//13
f 125//102 128//14 95//103
f 28//61 96//92 117//59
f 62//108 40//41 47//81
f 61//124 94//107 114//87
f 2//73 123//25 110//105
f 128//14 119//125 95//103
f 124//46 71//22 93//21
f 118//38 50//68 84//99
f 108//17 81//33 13//78
f 47//81 97//15 54//51
f 86//131 122//50 61//124
f 97//15 99//122 54//51
f 119//125 12//98 115//132
f 81//33 70//116 13//78
f 102//24 79//62 116//3
f 86//131 36//119 122//50
f 102//24 116//3 67//2
f 36//119 115//132 12//98
f 124//46 93//21 48//121
f 56//106 46//100 48//121
f 63//115 116//3 64//123
f 43//45 130//44 121//94
f 32//129 111//128 36//119
f 32//129 36//119 86//131
f 36//119 111//128 68//130
f 36//119 68//130 115//132
f 52//79 26//43 43//45
f 81//33 14//35 70//116
f 11//90 59//91 39//31
f 85//97 127//47 124//46
f 18//56 53//117 59//91
f 96//92 58//120 83//63
f 58//120 96//92 28//61
f 58//120 28//61 90//26
f 1//77 98//86 132//18
f 58//120 63//115 64//123
